<?xml version="1.0" encoding="UTF-8" standalone="no"?>
<!-- Created with Inkscape (http://www.inkscape.org/) -->

<svg
   width="600mm"
   height="364.32684mm"
   viewBox="0 0 600 364.32684"
   version="1.1"
   id="svg1"
   xml:space="preserve"
   inkscape:version="1.3.2 (091e20e, 2023-11-25, custom)"
   sodipodi:docname="JADA CANSAT TEAM.svg"
   inkscape:export-filename="JADA CANSAT TEAM.png"
   inkscape:export-xdpi="96"
   inkscape:export-ydpi="96"
   xmlns:inkscape="http://www.inkscape.org/namespaces/inkscape"
   xmlns:sodipodi="http://sodipodi.sourceforge.net/DTD/sodipodi-0.dtd"
   xmlns="http://www.w3.org/2000/svg"
   xmlns:svg="http://www.w3.org/2000/svg"><sodipodi:namedview
     id="namedview1"
     pagecolor="#ffffff"
     bordercolor="#999999"
     borderopacity="1"
     inkscape:showpageshadow="2"
     inkscape:pageopacity="0"
     inkscape:pagecheckerboard="0"
     inkscape:deskcolor="#d1d1d1"
     inkscape:document-units="mm"
     showguides="true"
     inkscape:zoom="0.35355339"
     inkscape:cx="1018.2338"
     inkscape:cy="530.33008"
     inkscape:window-width="2560"
     inkscape:window-height="1009"
     inkscape:window-x="-8"
     inkscape:window-y="-8"
     inkscape:window-maximized="1"
     inkscape:current-layer="layer1"><sodipodi:guide
       position="466.1128,81.533249"
       orientation="0,-1"
       id="guide49"
       inkscape:locked="false" /><sodipodi:guide
       position="417.69406,112.92258"
       orientation="1,0"
       id="guide50"
       inkscape:locked="false" /><sodipodi:guide
       position="409.41848,95.195499"
       orientation="1,0"
       id="guide51"
       inkscape:locked="false" /><sodipodi:guide
       position="401.81906,95.195499"
       orientation="1,0"
       id="guide52"
       inkscape:locked="false" /><sodipodi:guide
       position="445.92805,120.53588"
       orientation="1,0"
       id="guide53"
       inkscape:locked="false" /><sodipodi:guide
       position="529.30343,19.141618"
       orientation="1,0"
       id="guide54"
       inkscape:locked="false" /><sodipodi:guide
       position="430.47579,-111.2518"
       orientation="0,-1"
       id="guide58"
       inkscape:locked="false" /></sodipodi:namedview><defs
     id="defs1"><inkscape:path-effect
       effect="powerclip"
       id="path-effect63"
       is_visible="true"
       lpeversion="1"
       inverse="true"
       flatten="false"
       hide_clip="false"
       message="Utilice la regla de relleno parimpar en el diálogo &lt;b&gt;Relleno y borde&lt;/b&gt; si el resultado no está aplanada después de convertir el recorte en trayectos." /><clipPath
       clipPathUnits="userSpaceOnUse"
       id="clipPath63"><path
         id="path63"
         style="display:none;fill:#e70000;stroke-width:1.8567;stroke-linecap:square;stroke-linejoin:round;stroke-miterlimit:2.5;paint-order:fill markers stroke"
         d="m 143.46146,300.85964 a 2.5468965,2.5468965 0 0 1 -2.54689,2.54691 2.5468965,2.5468965 0 0 1 -2.5469,-2.54691 2.5468965,2.5468965 0 0 1 2.5469,-2.54688 2.5468965,2.5468965 0 0 1 2.54689,2.54688 z" /><path
         id="lpe_path-effect63"
         style="fill:#e70000;stroke-width:1.8567;stroke-linecap:square;stroke-linejoin:round;stroke-miterlimit:2.5;paint-order:fill markers stroke"
         class="powerclip"
         d="M 24.961265,269.59189 H 168.35723 v 73.17922 H 24.961265 Z m 118.500195,31.26775 a 2.5468965,2.5468965 0 0 0 -2.54689,-2.54688 2.5468965,2.5468965 0 0 0 -2.5469,2.54688 2.5468965,2.5468965 0 0 0 2.5469,2.54691 2.5468965,2.5468965 0 0 0 2.54689,-2.54691 z" /></clipPath></defs><g
     inkscape:label="Capa 1"
     inkscape:groupmode="layer"
     id="layer1"
     transform="translate(360.09663,-141.0042)"><circle
       style="display:none;fill:#a40000;fill-opacity:1;stroke:none;stroke-width:1.92592;stroke-linecap:square;stroke-linejoin:round;stroke-miterlimit:2.5;stroke-dasharray:none;stroke-opacity:1;paint-order:fill markers stroke"
       id="path49-9"
       cx="151.966"
       cy="110.94423"
       r="2.6418505" /><path
       d="m 117.67034,34.317802 a 15.757261,15.757261 0 0 1 0.95808,-3.105754 21.425158,21.425158 0 0 0 -1.16789,-0.03256 21.425158,21.425158 0 0 0 -18.319811,10.440707 21.425158,21.425158 0 0 1 16.141651,-7.436239 21.425158,21.425158 0 0 1 2.38797,0.133842 z"
       style="display:none;fill:none;stroke:#ffffff;stroke-width:2.03565;stroke-linecap:square;stroke-linejoin:round;stroke-miterlimit:2.5;paint-order:fill markers stroke"
       id="path10" /><path
       d="m 138.86853,51.995276 a 21.425158,21.425158 0 0 0 -20.24011,-20.783228 15.757261,15.757261 0 0 0 -0.95808,3.105754 21.425158,21.425158 0 0 1 18.83244,18.39526 15.757261,15.757261 0 0 0 2.36575,-0.717786 z"
       style="display:none;fill:none;stroke:#ffffff;stroke-width:2.03565;stroke-linecap:square;stroke-linejoin:round;stroke-miterlimit:2.5;paint-order:fill markers stroke"
       id="path7" /><path
       d="m 138.86853,51.995276 a 15.757261,15.757261 0 0 1 -2.36575,0.717786 21.425158,21.425158 0 0 1 0.20464,2.895947 21.425158,21.425158 0 0 1 -3.10576,10.984859 21.425158,21.425158 0 0 0 5.28392,-13.989327 21.425158,21.425158 0 0 0 -0.0171,-0.609265 z"
       style="display:none;fill:none;stroke:#ffffff;stroke-width:2.03565;stroke-linecap:square;stroke-linejoin:round;stroke-miterlimit:2.5;paint-order:fill markers stroke"
       id="path6" /><path
       d="M 99.140719,41.620199 A 21.425158,21.425158 0 0 0 93.85732,55.609009 21.425158,21.425158 0 0 0 115.28237,77.034058 21.425158,21.425158 0 0 0 133.60166,66.593868 21.425158,21.425158 0 0 1 117.46053,74.02959 21.425158,21.425158 0 0 1 96.035482,52.604541 21.425158,21.425158 0 0 1 99.140719,41.620199 Z"
       style="display:none;fill:none;stroke:#ffffff;stroke-width:2.03565;stroke-linecap:square;stroke-linejoin:round;stroke-miterlimit:2.5;paint-order:fill markers stroke"
       id="path11" /><path
       d="m 136.50278,52.713062 a 21.425158,21.425158 0 0 0 -18.83244,-18.39526 15.757261,15.757261 0 0 0 -0.29869,3.031856 15.757261,15.757261 0 0 0 15.75717,15.757178 15.757261,15.757261 0 0 0 3.37396,-0.393774 z"
       style="display:none;fill:none;stroke:#ffffff;stroke-width:2.03565;stroke-linecap:square;stroke-linejoin:round;stroke-miterlimit:2.5;paint-order:fill markers stroke"
       id="path9" /><path
       d="m 136.50278,52.713062 a 15.757261,15.757261 0 0 1 -3.37396,0.393774 15.757261,15.757261 0 0 1 -15.75717,-15.757178 15.757261,15.757261 0 0 1 0.29869,-3.031856 21.425158,21.425158 0 0 0 -2.38797,-0.133842 21.425158,21.425158 0 0 0 -16.141651,7.436239 21.425158,21.425158 0 0 0 -3.105237,10.984342 21.425158,21.425158 0 0 0 21.425048,21.425049 21.425158,21.425158 0 0 0 16.14113,-7.435722 21.425158,21.425158 0 0 0 3.10576,-10.984859 21.425158,21.425158 0 0 0 -0.20464,-2.895947 z"
       style="display:none;fill:none;stroke:#ffffff;stroke-width:2.03565;stroke-linecap:square;stroke-linejoin:round;stroke-miterlimit:2.5;paint-order:fill markers stroke"
       id="path8" /><g
       id="g65"
       transform="matrix(4.3221038,0,0,4.3221038,-537.75132,-468.43063)"><text
         xml:space="preserve"
         style="font-size:16.3316px;font-family:Mom´sTypewriter;-inkscape-font-specification:'Mom´sTypewriter, Normal';fill:#a40000;fill-opacity:1;stroke:none;stroke-width:1.31076;stroke-linecap:square;stroke-linejoin:round;stroke-miterlimit:2.5;stroke-dasharray:none;stroke-opacity:1;paint-order:fill markers stroke"
         x="40.954159"
         y="225.06682"
         id="text53"><tspan
           sodipodi:role="line"
           id="tspan53"
           style="font-style:normal;font-variant:normal;font-weight:900;font-stretch:normal;font-size:16.3316px;font-family:Sans;-inkscape-font-specification:'Sans, Heavy';font-variant-ligatures:normal;font-variant-caps:normal;font-variant-numeric:normal;font-variant-east-asian:normal;stroke-width:1.31076"
           x="40.954159"
           y="225.06682">CANSAT TEAM</tspan></text><g
         id="g64"
         transform="matrix(1.0406708,0,0,1.0406708,9.9239402,-144.75555)"><circle
           style="fill:#a40000;fill-opacity:1;stroke:none;stroke-width:0.929814;stroke-linecap:square;stroke-linejoin:round;stroke-miterlimit:2.5;stroke-dasharray:none;stroke-opacity:1;paint-order:fill markers stroke"
           id="path49-8"
           cx="140.91026"
           cy="300.76331"
           r="1.2754544" /><g
           id="g59"
           clip-path="url(#clipPath63)"
           inkscape:path-effect="#path-effect63"><g
             id="g58"><path
               d="m 49.897837,326.30918 c 0,1.62793 -0.251724,3.15619 -0.755173,4.58478 -0.503448,1.41197 -1.25143,2.60801 -2.243943,3.58808 -1.050051,1.04652 -2.315865,1.86048 -3.797443,2.44189 -1.481578,0.56479 -3.31557,0.84718 -5.501976,0.84718 -1.481578,0 -2.876849,-0.0664 -4.185816,-0.19933 -1.308967,-0.11629 -2.459707,-0.2907 -3.452221,-0.52326 v -7.52501 h 0.776749 c 0.690444,0.299 1.409657,0.5814 2.157638,0.84719 0.747982,0.24917 1.704534,0.37375 2.869658,0.37375 1.510346,0 2.668279,-0.23256 3.473797,-0.69768 0.819902,-0.46513 1.402465,-1.11297 1.747687,-1.94354 0.330837,-0.81396 0.517832,-1.70269 0.560986,-2.66615 0.04315,-0.98008 0.06473,-2.22594 0.06473,-3.73759 v -14.77592 h -7.357545 v -6.82734 h 15.642873 z m 69.807643,-7.62467 c 0,3.45518 -0.68326,6.55323 -2.04976,9.29412 -1.3665,2.7243 -3.09261,4.81734 -5.17833,6.27916 -1.56788,1.09635 -3.2868,1.86048 -5.15675,2.29238 -1.86995,0.4319 -4.08512,0.64785 -6.64552,0.64785 H 89.347518 v -37.10179 h 11.651252 c 2.61793,0 4.87626,0.25748 6.77498,0.77244 1.89872,0.49834 3.49536,1.21264 4.78995,2.14288 2.21517,1.56148 3.95566,3.67115 5.22148,6.32899 1.2802,2.64122 1.9203,5.75588 1.9203,9.34397 z m -8.56582,-0.0748 c 0,-2.44189 -0.38838,-4.52664 -1.16513,-6.25423 -0.76237,-1.74421 -1.97783,-3.10635 -3.6464,-4.08643 -0.84867,-0.48173 -1.71892,-0.80566 -2.61075,-0.97177 -0.87744,-0.18273 -2.20798,-0.27409 -3.991623,-0.27409 h -2.09291 v 23.22287 h 2.09291 c 1.970643,0 3.416263,-0.0996 4.336853,-0.29901 0.92059,-0.21595 1.8196,-0.598 2.69705,-1.14618 1.51034,-0.99669 2.61793,-2.32562 3.32275,-3.98677 0.70483,-1.67776 1.05725,-3.74589 1.05725,-6.20439 z"
               id="text54-4"
               style="-inkscape-font-specification:'Sans, Heavy';stroke-width:3.31457;stroke-linecap:square;stroke-linejoin:round;stroke-miterlimit:2.5;paint-order:fill markers stroke"
               aria-label="JADA"
               sodipodi:nodetypes="scccscccccscccsccccssccssccscccsscccsccscccs"
               inkscape:original-d="m 49.897837,326.30918 c 0,1.62793 -0.251724,3.15619 -0.755173,4.58478 -0.503448,1.41197 -1.25143,2.60801 -2.243943,3.58808 -1.050051,1.04652 -2.315865,1.86048 -3.797443,2.44189 -1.481578,0.56479 -3.31557,0.84718 -5.501976,0.84718 -1.481578,0 -2.876849,-0.0664 -4.185816,-0.19933 -1.308967,-0.11629 -2.459707,-0.2907 -3.452221,-0.52326 v -7.52501 h 0.776749 c 0.690444,0.299 1.409657,0.5814 2.157638,0.84719 0.747982,0.24917 1.704534,0.37375 2.869658,0.37375 1.510346,0 2.668279,-0.23256 3.473797,-0.69768 0.819902,-0.46513 1.402465,-1.11297 1.747687,-1.94354 0.330837,-0.81396 0.517832,-1.70269 0.560986,-2.66615 0.04315,-0.98008 0.06473,-2.22594 0.06473,-3.73759 v -14.77592 h -7.357545 v -6.82734 h 15.642873 z m 69.807643,-7.62467 c 0,3.45518 -0.68326,6.55323 -2.04976,9.29412 -1.3665,2.7243 -3.09261,4.81734 -5.17833,6.27916 -1.56788,1.09635 -3.2868,1.86048 -5.15675,2.29238 -1.86995,0.4319 -4.08512,0.64785 -6.64552,0.64785 H 89.347518 v -37.10179 h 11.651252 c 2.61793,0 4.87626,0.25748 6.77498,0.77244 1.89872,0.49834 3.49536,1.21264 4.78995,2.14288 2.21517,1.56148 3.95566,3.67115 5.22148,6.32899 1.2802,2.64122 1.9203,5.75588 1.9203,9.34397 z m -8.56582,-0.0748 c 0,-2.44189 -0.38838,-4.52664 -1.16513,-6.25423 -0.76237,-1.74421 -1.97783,-3.10635 -3.6464,-4.08643 -0.84867,-0.48173 -1.71892,-0.80566 -2.61075,-0.97177 -0.87744,-0.18273 -2.20798,-0.27409 -3.991623,-0.27409 h -2.09291 v 23.22287 h 2.09291 c 1.970643,0 3.416263,-0.0996 4.336853,-0.29901 0.92059,-0.21595 1.8196,-0.598 2.69705,-1.14618 1.51034,-0.99669 2.61793,-2.32562 3.32275,-3.98677 0.70483,-1.67776 1.05725,-3.74589 1.05725,-6.20439 z" /><path
               id="path1"
               style="-inkscape-font-specification:'Sans, Heavy';fill:#000000;fill-opacity:1;stroke-width:3.31457;stroke-linecap:square;stroke-linejoin:round;stroke-miterlimit:2.5;paint-order:fill markers stroke"
               d="m 131.65402,300.09589 -5.08186,15.88844 c 0.0865,0.86855 0.13178,1.76759 0.13178,2.70009 0,3.45518 -0.68299,6.55311 -2.04949,9.29401 -0.97338,1.94056 -2.13279,3.5545 -3.47111,4.85448 l -1.39629,4.36511 h 8.34987 l 2.22261,-7.50031 h 11.91038 l 2.22209,7.50031 h 8.56588 l -11.86697,-37.10213 z m 4.6607,9.49348 3.9486,13.30617 h -7.8972 z"
               sodipodi:nodetypes="ccscccccccccccccc"
               inkscape:original-d="m 131.65402,300.09589 -5.08186,15.88844 c 0.0865,0.86855 0.13178,1.76759 0.13178,2.70009 0,3.45518 -0.68299,6.55311 -2.04949,9.29401 -0.97338,1.94056 -2.13279,3.5545 -3.47111,4.85448 l -1.39629,4.36511 h 8.34987 l 2.22261,-7.50031 h 11.91038 l 2.22209,7.50031 h 8.56588 l -11.86697,-37.10213 z m 4.6607,9.49348 3.9486,13.30617 h -7.8972 z" /><path
               id="path1-2"
               style="-inkscape-font-specification:'Sans, Heavy';stroke-width:3.31457;stroke-linecap:square;stroke-linejoin:round;stroke-miterlimit:2.5;paint-order:fill markers stroke"
               d="m 62.651985,300.09589 -6.020305,18.82263 v 7.10396 c 0,1.62793 -0.251544,3.15614 -0.754992,4.58473 -0.503448,1.41197 -1.251279,2.60783 -2.243791,3.58789 -0.721117,0.7187 -1.546533,1.32536 -2.471167,1.8247 l -0.376721,1.17822 h 8.350395 l 2.222086,-7.50031 h 11.910384 l 2.222087,7.50031 h 8.565885 L 72.18887,300.09589 Z m 4.660697,9.49348 3.948596,13.30617 h -7.897192 z"
               sodipodi:nodetypes="ccsccccccccccccccc"
               inkscape:original-d="m 62.651985,300.09589 -6.020305,18.82263 v 7.10396 c 0,1.62793 -0.251544,3.15614 -0.754992,4.58473 -0.503448,1.41197 -1.251279,2.60783 -2.243791,3.58789 -0.721117,0.7187 -1.546533,1.32536 -2.471167,1.8247 l -0.376721,1.17822 h 8.350395 l 2.222086,-7.50031 h 11.910384 l 2.222087,7.50031 h 8.565885 L 72.18887,300.09589 Z m 4.660697,9.49348 3.948596,13.30617 h -7.897192 z" /></g><path
             d="m 140.5361,298.31855 c -0.18722,-0.39181 -1.70973,-6.878 -2.97052,-12.96095 -1.13709,-0.53021 -1.78516,-0.71245 -2.70513,-1.39627 5.7174,-0.095 18.61243,6.47703 22.88491,15.39147 -0.0681,0.0681 -0.56474,-0.22669 -1.10373,-0.65503 -0.81365,-0.64661 -1.10121,-0.73913 -1.69432,-0.54517 -0.63776,0.20856 -11.53047,2.32008 -11.67485,1.90955 -0.39897,-1.13447 -1.5475,-1.84735 -2.73636,-1.7436 z m 14.42165,-0.94449 c 0.1076,-0.0958 -0.56145,-0.92452 -1.48678,-1.84162 l -1.68241,-1.66745 c -2.07922,1.39732 -5.23882,3.93804 -7.37827,5.24268 4.5025,-0.44698 8.44926,-1.11109 10.54746,-1.73361 z m -3.77332,-4.00383 c 0.0106,-0.26804 -3.17555,-2.39449 -3.3896,-2.2622 -0.26032,0.16089 -4.83974,6.78966 -4.57516,7.14683 0.25594,0.3455 7.95794,-4.71312 7.96476,-4.88463 z m -4.10083,-2.93849 c -0.18014,-0.29148 -3.30659,-2.15987 -3.42087,-2.03679 -0.11722,0.12626 -1.11556,5.59877 -1.29852,7.11797 -0.0797,0.66142 -0.22271,1.40556 -0.31791,1.65364 -0.0952,0.24809 -0.0535,0.45106 0.0926,0.45106 z m -4.12918,-2.48049 c -1.6792,-0.98196 -2.37816,-1.20373 -4.40712,-2.11364 -0.29409,-0.13189 2.04101,10.67745 2.55327,10.18183 0.34898,-0.33765 1.47653,-6.44156 1.85385,-8.06819 z m 15.1385,10.01299 c -3.99986,-6.60539 -13.74142,-13.08631 -21.76243,-14.47825 -1.15883,-0.2011 -2.16699,-0.42566 -2.24035,-0.49903 -0.21452,-0.21451 1.20855,-2.86666 2.18191,-4.06638 1.21264,-1.49465 3.75904,-3.14598 5.84441,-3.79009 1.92732,-0.59528 5.81586,-0.72363 7.61858,-0.25147 7.8823,2.06454 13.64336,8.52553 13.62213,15.27715 -0.005,1.57097 -0.63318,4.26504 -1.29886,5.56988 -0.5854,1.14747 -2.58296,3.74737 -2.87057,3.73615 -0.10576,-0.004 -0.59843,-0.67821 -1.09482,-1.49796 z M 157.1689,280.552 c 1.40262,6.15514 -1.54921,11.43611 -2.00991,12.37261 4.16074,-2.75608 4.02464,-9.78463 2.00991,-12.37261 z m -5.44949,-3.30729 c -4.15471,-0.0675 -8.47786,0.77599 -10.13091,6.06682 3.35217,-3.9151 4.76509,-4.5057 10.13091,-6.06682 z"
             style="display:inline;fill:#000000"
             id="path1-8"
             sodipodi:nodetypes="ccccsssccscccsssscssscccsscsssssssscscccccc"
             inkscape:original-d="m 140.5361,298.31855 c -0.18722,-0.39181 -1.70973,-6.878 -2.97052,-12.96095 -1.13709,-0.53021 -1.78516,-0.71245 -2.70513,-1.39627 5.7174,-0.095 18.61243,6.47703 22.88491,15.39147 -0.0681,0.0681 -0.56474,-0.22669 -1.10373,-0.65503 -0.81365,-0.64661 -1.10121,-0.73913 -1.69432,-0.54517 -0.63776,0.20856 -11.53047,2.32008 -11.67485,1.90955 -0.39897,-1.13447 -1.5475,-1.84735 -2.73636,-1.7436 z m 14.42165,-0.94449 c 0.1076,-0.0958 -0.56145,-0.92452 -1.48678,-1.84162 l -1.68241,-1.66745 c -2.07922,1.39732 -5.23882,3.93804 -7.37827,5.24268 4.5025,-0.44698 8.44926,-1.11109 10.54746,-1.73361 z m -3.77332,-4.00383 c 0.0106,-0.26804 -3.17555,-2.39449 -3.3896,-2.2622 -0.26032,0.16089 -4.83974,6.78966 -4.57516,7.14683 0.25594,0.3455 7.95794,-4.71312 7.96476,-4.88463 z m -4.10083,-2.93849 c -0.18014,-0.29148 -3.30659,-2.15987 -3.42087,-2.03679 -0.11722,0.12626 -1.11556,5.59877 -1.29852,7.11797 -0.0797,0.66142 -0.22271,1.40556 -0.31791,1.65364 -0.0952,0.24809 -0.0535,0.45106 0.0926,0.45106 z m -4.12918,-2.48049 c -1.6792,-0.98196 -2.37816,-1.20373 -4.40712,-2.11364 -0.29409,-0.13189 2.04101,10.67745 2.55327,10.18183 0.34898,-0.33765 1.47653,-6.44156 1.85385,-8.06819 z m 15.1385,10.01299 c -3.99986,-6.60539 -13.74142,-13.08631 -21.76243,-14.47825 -1.15883,-0.2011 -2.16699,-0.42566 -2.24035,-0.49903 -0.21452,-0.21451 1.20855,-2.86666 2.18191,-4.06638 1.21264,-1.49465 3.75904,-3.14598 5.84441,-3.79009 1.92732,-0.59528 5.81586,-0.72363 7.61858,-0.25147 7.8823,2.06454 13.64336,8.52553 13.62213,15.27715 -0.005,1.57097 -0.63318,4.26504 -1.29886,5.56988 -0.5854,1.14747 -2.58296,3.74737 -2.87057,3.73615 -0.10576,-0.004 -0.59843,-0.67821 -1.09482,-1.49796 z M 157.1689,280.552 c 1.40262,6.15514 -1.54921,11.43611 -2.00991,12.37261 4.16074,-2.75608 4.02464,-9.78463 2.00991,-12.37261 z m -5.44949,-3.30729 c -4.15471,-0.0675 -8.47786,0.77599 -10.13091,6.06682 3.35217,-3.9151 4.76509,-4.5057 10.13091,-6.06682 z" /></g></g></g></g></svg>
